<mxfile host="app.diagrams.net" agent="Mozilla/5.0 (Windows NT 10.0; Win64; x64) AppleWebKit/537.36 (KHTML, like Gecko) Chrome/131.0.0.0 Safari/537.36" version="24.8.6">
  <diagram name="Страница — 1" id="u3b04riphAIz7H2jgYYJ">
    <mxGraphModel dx="749" dy="949" grid="1" gridSize="10" guides="1" tooltips="1" connect="1" arrows="1" fold="1" page="1" pageScale="1" pageWidth="827" pageHeight="1169" math="0" shadow="0">
      <root>
        <mxCell id="0" />
        <mxCell id="1" parent="0" />
        <mxCell id="uVDQjS0AJpAKpCKqOr-H-16" style="edgeStyle=orthogonalEdgeStyle;rounded=0;orthogonalLoop=1;jettySize=auto;html=1;exitX=0.5;exitY=0;exitDx=0;exitDy=0;" edge="1" parent="1">
          <mxGeometry relative="1" as="geometry">
            <mxPoint x="510" y="170" as="targetPoint" />
            <mxPoint x="510" y="260" as="sourcePoint" />
          </mxGeometry>
        </mxCell>
        <mxCell id="uVDQjS0AJpAKpCKqOr-H-17" value="последовательность лексем" style="edgeLabel;html=1;align=center;verticalAlign=middle;resizable=0;points=[];" vertex="1" connectable="0" parent="uVDQjS0AJpAKpCKqOr-H-16">
          <mxGeometry x="0.3695" y="-2" relative="1" as="geometry">
            <mxPoint y="42" as="offset" />
          </mxGeometry>
        </mxCell>
        <mxCell id="uVDQjS0AJpAKpCKqOr-H-1" value="&lt;div style=&quot;&quot;&gt;&lt;span style=&quot;font-size: 14pt; background-color: initial;&quot;&gt;Подсистема лексического анализа&lt;/span&gt;&lt;/div&gt;" style="swimlane;whiteSpace=wrap;html=1;align=right;" vertex="1" parent="1">
          <mxGeometry x="170" y="200" width="470" height="350" as="geometry" />
        </mxCell>
        <mxCell id="uVDQjS0AJpAKpCKqOr-H-14" style="edgeStyle=orthogonalEdgeStyle;rounded=0;orthogonalLoop=1;jettySize=auto;html=1;exitX=1;exitY=0.5;exitDx=0;exitDy=0;" edge="1" parent="uVDQjS0AJpAKpCKqOr-H-1" source="uVDQjS0AJpAKpCKqOr-H-8">
          <mxGeometry relative="1" as="geometry">
            <mxPoint x="590" y="102" as="targetPoint" />
          </mxGeometry>
        </mxCell>
        <mxCell id="uVDQjS0AJpAKpCKqOr-H-15" value="сообщения об ошибках" style="edgeLabel;html=1;align=center;verticalAlign=middle;resizable=0;points=[];" vertex="1" connectable="0" parent="uVDQjS0AJpAKpCKqOr-H-14">
          <mxGeometry x="0.2259" y="-1" relative="1" as="geometry">
            <mxPoint x="-34" y="-1" as="offset" />
          </mxGeometry>
        </mxCell>
        <mxCell id="uVDQjS0AJpAKpCKqOr-H-2" value="множество регулярных выражений, задающее лексемы" style="rounded=0;whiteSpace=wrap;html=1;" vertex="1" parent="uVDQjS0AJpAKpCKqOr-H-1">
          <mxGeometry x="20" y="220" width="120" height="60" as="geometry" />
        </mxCell>
        <mxCell id="uVDQjS0AJpAKpCKqOr-H-12" style="edgeStyle=orthogonalEdgeStyle;rounded=0;orthogonalLoop=1;jettySize=auto;html=1;exitX=0.5;exitY=0;exitDx=0;exitDy=0;" edge="1" parent="uVDQjS0AJpAKpCKqOr-H-1" source="uVDQjS0AJpAKpCKqOr-H-4" target="uVDQjS0AJpAKpCKqOr-H-8">
          <mxGeometry relative="1" as="geometry" />
        </mxCell>
        <mxCell id="uVDQjS0AJpAKpCKqOr-H-13" value="последовательность лексем" style="edgeLabel;html=1;align=center;verticalAlign=middle;resizable=0;points=[];" vertex="1" connectable="0" parent="uVDQjS0AJpAKpCKqOr-H-12">
          <mxGeometry x="0.0674" y="2" relative="1" as="geometry">
            <mxPoint as="offset" />
          </mxGeometry>
        </mxCell>
        <mxCell id="uVDQjS0AJpAKpCKqOr-H-4" value="система распознавания лексем" style="rounded=0;whiteSpace=wrap;html=1;" vertex="1" parent="uVDQjS0AJpAKpCKqOr-H-1">
          <mxGeometry x="250" y="207.5" width="156" height="85" as="geometry" />
        </mxCell>
        <mxCell id="uVDQjS0AJpAKpCKqOr-H-7" style="edgeStyle=orthogonalEdgeStyle;rounded=0;orthogonalLoop=1;jettySize=auto;html=1;exitX=1;exitY=0.5;exitDx=0;exitDy=0;" edge="1" parent="uVDQjS0AJpAKpCKqOr-H-1" source="uVDQjS0AJpAKpCKqOr-H-2">
          <mxGeometry relative="1" as="geometry">
            <mxPoint x="240" y="250" as="targetPoint" />
          </mxGeometry>
        </mxCell>
        <mxCell id="uVDQjS0AJpAKpCKqOr-H-8" value="система проверки корректности последовательности лексем" style="rounded=0;whiteSpace=wrap;html=1;" vertex="1" parent="uVDQjS0AJpAKpCKqOr-H-1">
          <mxGeometry x="250" y="60" width="156" height="85" as="geometry" />
        </mxCell>
        <mxCell id="uVDQjS0AJpAKpCKqOr-H-18" value="" style="endArrow=classic;html=1;rounded=0;entryX=0.5;entryY=1;entryDx=0;entryDy=0;" edge="1" parent="1" target="uVDQjS0AJpAKpCKqOr-H-4">
          <mxGeometry width="50" height="50" relative="1" as="geometry">
            <mxPoint x="498" y="580" as="sourcePoint" />
            <mxPoint x="420" y="400" as="targetPoint" />
          </mxGeometry>
        </mxCell>
        <mxCell id="uVDQjS0AJpAKpCKqOr-H-19" value="код на Pascasl" style="edgeLabel;html=1;align=center;verticalAlign=middle;resizable=0;points=[];" vertex="1" connectable="0" parent="uVDQjS0AJpAKpCKqOr-H-18">
          <mxGeometry x="-0.3364" y="-1" relative="1" as="geometry">
            <mxPoint x="-1" y="-21" as="offset" />
          </mxGeometry>
        </mxCell>
      </root>
    </mxGraphModel>
  </diagram>
</mxfile>
